<svg width="1024" height="1024" viewBox="0 0 1024 1024" fill="none" xmlns="http://www.w3.org/2000/svg">
<rect width="1024" height="1024" fill="#1f1f1f"/>
<path d="M217.28 558H201.32L233 470.28H248.72L280.4 558H264.2L257.12 537.72H224.36L217.28 558ZM238.88 496.44L228.92 524.76H252.68L242.6 496.44C241.88 494.16 241.04 491.52 240.8 489.72C240.44 491.4 239.72 494.04 238.88 496.44ZM304 558H289.48V468.72H304V523.56L327.04 498.72H345.4L322.84 522.24L344.92 558H328.12L312.64 533.04L304 542.04V558ZM369.575 559.56C356.975 559.56 349.295 552.24 349.295 541.08C349.295 530.16 357.215 523.32 371.255 522.24L389.015 520.92V519.6C389.015 511.56 384.215 508.32 376.775 508.32C368.135 508.32 363.335 511.92 363.335 518.16H350.855C350.855 505.32 361.415 496.92 377.495 496.92C393.455 496.92 403.295 505.56 403.295 522V558H390.455L389.375 549.24C386.855 555.36 378.815 559.56 369.575 559.56ZM374.375 548.52C383.375 548.52 389.135 543.12 389.135 534V530.88L376.775 531.84C367.655 532.68 364.175 535.68 364.175 540.48C364.175 545.88 367.775 548.52 374.375 548.52ZM489.261 559.44C463.701 559.44 447.141 541.68 447.141 514.2C447.141 486.96 464.301 468.84 489.981 468.84C510.741 468.84 526.221 480.96 529.221 499.8H513.021C510.021 489.6 501.261 483.6 489.621 483.6C473.421 483.6 463.221 495.36 463.221 514.08C463.221 532.68 473.541 544.68 489.621 544.68C501.501 544.68 510.621 538.44 513.501 528.72H529.461C526.101 547.2 510.021 559.44 489.261 559.44ZM567.596 559.56C549.956 559.56 537.596 546.72 537.596 528.36C537.596 509.76 549.716 496.92 567.116 496.92C584.876 496.92 596.156 508.8 596.156 527.28V531.72L551.516 531.84C552.596 542.28 558.116 547.56 567.836 547.56C575.876 547.56 581.156 544.44 582.836 538.8H596.396C593.876 551.76 583.076 559.56 567.596 559.56ZM567.236 508.92C558.596 508.92 553.316 513.6 551.876 522.48H581.636C581.636 514.32 575.996 508.92 567.236 508.92ZM622.513 558H607.873V498.72H621.433L622.633 506.4C626.353 500.4 633.553 496.92 641.593 496.92C656.473 496.92 664.153 506.16 664.153 521.52V558H649.513V525C649.513 515.04 644.593 510.24 637.033 510.24C628.033 510.24 622.513 516.48 622.513 526.08V558ZM698.697 558H684.057V510.96H672.657V498.72H684.057V480.24H698.697V498.72H710.217V510.96H698.697V558ZM756.518 498.48V512.04H751.118C740.558 512.04 733.958 517.68 733.958 529.2V558H719.318V498.84H733.118L733.958 507.48C736.478 501.6 742.118 497.64 750.038 497.64C752.078 497.64 754.118 497.88 756.518 498.48ZM790.955 559.56C773.315 559.56 760.955 546.72 760.955 528.36C760.955 509.76 773.075 496.92 790.475 496.92C808.235 496.92 819.515 508.8 819.515 527.28V531.72L774.875 531.84C775.955 542.28 781.475 547.56 791.195 547.56C799.235 547.56 804.515 544.44 806.195 538.8H819.755C817.235 551.76 806.435 559.56 790.955 559.56ZM790.595 508.92C781.955 508.92 776.675 513.6 775.235 522.48H804.995C804.995 514.32 799.355 508.92 790.595 508.92Z" fill="#fefefe "/>
</svg>
