<svg width="1024" height="1024" viewBox="0 0 1024 1024" fill="none" xmlns="http://www.w3.org/2000/svg">
<rect width="1024" height="1024" fill="#1f1f1f"/>
<path d="M81.04 484.44V470.28H147.76V484.44H122.08V558H106.72V484.44H81.04ZM214.697 558L208.817 551.4C201.857 556.68 192.977 559.56 182.417 559.56C163.337 559.56 150.497 549.48 150.497 534.72C150.497 524.04 157.457 515.28 170.897 508.8C164.057 500.88 161.417 495.48 161.417 488.88C161.417 477.24 170.897 468.84 183.857 468.84C196.697 468.84 205.577 476.76 205.577 488.16C205.577 496.92 200.897 503.88 189.977 511.2L207.617 531C209.177 526.8 210.017 521.76 210.017 516H224.297C224.297 526.2 221.897 534.96 217.457 541.92L231.737 558H214.697ZM175.337 488.76C175.337 493.08 177.257 496.68 182.897 503.16C189.017 499.56 192.017 494.64 192.017 488.64C192.017 483.48 188.897 480.48 183.857 480.48C178.577 480.48 175.337 483.6 175.337 488.76ZM165.977 533.28C165.977 541.8 172.817 546.96 184.097 546.96C190.697 546.96 196.097 545.16 200.297 541.8L177.977 516.72C169.697 521.4 165.977 526.44 165.977 533.28ZM258.416 470.28V516.36L293.936 470.28H312.056L283.016 507.72L312.416 558H294.656L272.936 520.68L258.416 539.28V558H243.056V470.28H258.416ZM371.619 558H356.259V470.28H389.739C409.659 470.28 421.299 480.36 421.299 497.64C421.299 509.4 415.779 517.8 405.459 522L422.139 558H405.339L390.459 525.24H371.619V558ZM371.619 483.96V511.68H389.739C399.459 511.68 405.219 506.52 405.219 497.64C405.219 488.88 399.459 483.96 389.739 483.96H371.619ZM456.791 559.56C439.151 559.56 426.791 546.72 426.791 528.36C426.791 509.76 438.911 496.92 456.311 496.92C474.071 496.92 485.351 508.8 485.351 527.28V531.72L440.711 531.84C441.791 542.28 447.311 547.56 457.031 547.56C465.071 547.56 470.351 544.44 472.031 538.8H485.591C483.071 551.76 472.271 559.56 456.791 559.56ZM456.431 508.92C447.791 508.92 442.511 513.6 441.071 522.48H470.831C470.831 514.32 465.191 508.92 456.431 508.92ZM492.508 540H506.428C506.548 545.16 510.388 548.4 517.108 548.4C523.948 548.4 527.668 545.64 527.668 541.32C527.668 538.32 526.108 536.16 520.828 534.96L510.148 532.44C499.468 530.04 494.308 525 494.308 515.52C494.308 503.88 504.148 496.92 517.828 496.92C531.148 496.92 540.148 504.6 540.268 516.12H526.348C526.228 511.08 522.868 507.84 517.228 507.84C511.468 507.84 508.108 510.48 508.108 514.92C508.108 518.28 510.748 520.44 515.788 521.64L526.468 524.16C536.428 526.44 541.468 531 541.468 540.12C541.468 552.12 531.268 559.56 516.628 559.56C501.868 559.56 492.508 551.64 492.508 540ZM572.775 558H558.135V510.96H546.735V498.72H558.135V480.24H572.775V498.72H584.295V510.96H572.775V558ZM610.684 559.56C598.084 559.56 590.404 552.24 590.404 541.08C590.404 530.16 598.324 523.32 612.364 522.24L630.124 520.92V519.6C630.124 511.56 625.324 508.32 617.884 508.32C609.244 508.32 604.444 511.92 604.444 518.16H591.964C591.964 505.32 602.524 496.92 618.604 496.92C634.564 496.92 644.404 505.56 644.404 522V558H631.564L630.484 549.24C627.964 555.36 619.924 559.56 610.684 559.56ZM615.484 548.52C624.484 548.52 630.244 543.12 630.244 534V530.88L617.884 531.84C608.764 532.68 605.284 535.68 605.284 540.48C605.284 545.88 608.884 548.52 615.484 548.52ZM698.987 498.72H713.627V558H700.067L698.987 550.08C695.387 555.72 687.707 559.56 679.787 559.56C666.107 559.56 658.067 550.32 658.067 535.8V498.72H672.707V530.64C672.707 541.92 677.147 546.48 685.307 546.48C694.547 546.48 698.987 541.08 698.987 529.8V498.72ZM765.948 498.48V512.04H760.548C749.988 512.04 743.388 517.68 743.388 529.2V558H728.748V498.84H742.548L743.388 507.48C745.908 501.6 751.548 497.64 759.468 497.64C761.508 497.64 763.548 497.88 765.948 498.48ZM791.153 559.56C778.553 559.56 770.873 552.24 770.873 541.08C770.873 530.16 778.793 523.32 792.833 522.24L810.593 520.92V519.6C810.593 511.56 805.793 508.32 798.353 508.32C789.713 508.32 784.913 511.92 784.913 518.16H772.433C772.433 505.32 782.993 496.92 799.073 496.92C815.033 496.92 824.873 505.56 824.873 522V558H812.033L810.953 549.24C808.433 555.36 800.393 559.56 791.153 559.56ZM795.953 548.52C804.953 548.52 810.713 543.12 810.713 534V530.88L798.353 531.84C789.233 532.68 785.753 535.68 785.753 540.48C785.753 545.88 789.353 548.52 795.953 548.52ZM853.895 558H839.255V498.72H852.815L854.015 506.4C857.735 500.4 864.935 496.92 872.975 496.92C887.855 496.92 895.535 506.16 895.535 521.52V558H880.895V525C880.895 515.04 875.975 510.24 868.415 510.24C859.415 510.24 853.895 516.48 853.895 526.08V558ZM930.079 558H915.439V510.96H904.039V498.72H915.439V480.24H930.079V498.72H941.599V510.96H930.079V558Z" fill="#fafafa"/>
</svg>
