<svg width="1024" height="1024" viewBox="0 0 1024 1024" fill="none" xmlns="http://www.w3.org/2000/svg">
<rect width="1024" height="1024" fill="#1f1f1f"/>
<path d="M123.08 558H107.72V470.28H123.08V506.52H161.96V470.28H177.32V558H161.96V520.8H123.08V558ZM212.263 559.56C199.663 559.56 191.983 552.24 191.983 541.08C191.983 530.16 199.903 523.32 213.943 522.24L231.703 520.92V519.6C231.703 511.56 226.903 508.32 219.463 508.32C210.823 508.32 206.023 511.92 206.023 518.16H193.543C193.543 505.32 204.103 496.92 220.183 496.92C236.143 496.92 245.983 505.56 245.983 522V558H233.143L232.063 549.24C229.543 555.36 221.503 559.56 212.263 559.56ZM217.062 548.52C226.063 548.52 231.823 543.12 231.823 534V530.88L219.463 531.84C210.343 532.68 206.863 535.68 206.863 540.48C206.863 545.88 210.463 548.52 217.062 548.52ZM255.805 540H269.725C269.845 545.16 273.685 548.4 280.405 548.4C287.245 548.4 290.965 545.64 290.965 541.32C290.965 538.32 289.405 536.16 284.125 534.96L273.445 532.44C262.765 530.04 257.605 525 257.605 515.52C257.605 503.88 267.445 496.92 281.125 496.92C294.445 496.92 303.445 504.6 303.565 516.12H289.645C289.525 511.08 286.165 507.84 280.525 507.84C274.765 507.84 271.405 510.48 271.405 514.92C271.405 518.28 274.045 520.44 279.085 521.64L289.765 524.16C299.725 526.44 304.765 531 304.765 540.12C304.765 552.12 294.565 559.56 279.925 559.56C265.165 559.56 255.805 551.64 255.805 540ZM311.352 540H325.272C325.392 545.16 329.232 548.4 335.952 548.4C342.792 548.4 346.512 545.64 346.512 541.32C346.512 538.32 344.952 536.16 339.672 534.96L328.992 532.44C318.312 530.04 313.152 525 313.152 515.52C313.152 503.88 322.992 496.92 336.672 496.92C349.992 496.92 358.992 504.6 359.112 516.12H345.192C345.072 511.08 341.712 507.84 336.072 507.84C330.312 507.84 326.952 510.48 326.952 514.92C326.952 518.28 329.592 520.44 334.632 521.64L345.312 524.16C355.272 526.44 360.312 531 360.312 540.12C360.312 552.12 350.112 559.56 335.472 559.56C320.712 559.56 311.352 551.64 311.352 540ZM389.098 559.56C376.498 559.56 368.818 552.24 368.818 541.08C368.818 530.16 376.738 523.32 390.778 522.24L408.538 520.92V519.6C408.538 511.56 403.738 508.32 396.298 508.32C387.658 508.32 382.858 511.92 382.858 518.16H370.378C370.378 505.32 380.938 496.92 397.018 496.92C412.978 496.92 422.818 505.56 422.818 522V558H409.978L408.898 549.24C406.378 555.36 398.338 559.56 389.098 559.56ZM393.898 548.52C402.898 548.52 408.658 543.12 408.658 534V530.88L396.298 531.84C387.178 532.68 383.698 535.68 383.698 540.48C383.698 545.88 387.298 548.52 393.898 548.52ZM451.841 558H437.201V498.72H450.761L451.961 506.4C455.681 500.4 462.881 496.92 470.921 496.92C485.801 496.92 493.481 506.16 493.481 521.52V558H478.841V525C478.841 515.04 473.921 510.24 466.361 510.24C457.361 510.24 451.841 516.48 451.841 526.08V558ZM596.848 558H542.368V470.28H596.848V484.44H557.728V507H592.768V520.56H557.728V543.84H596.848V558ZM625.981 558H611.341V498.72H624.901L626.101 506.4C629.821 500.4 637.021 496.92 645.061 496.92C659.941 496.92 667.621 506.16 667.621 521.52V558H652.981V525C652.981 515.04 648.061 510.24 640.501 510.24C631.501 510.24 625.981 516.48 625.981 526.08V558ZM708.525 559.56C690.885 559.56 678.525 546.72 678.525 528.36C678.525 509.76 690.645 496.92 708.045 496.92C725.805 496.92 737.085 508.8 737.085 527.28V531.72L692.445 531.84C693.525 542.28 699.045 547.56 708.765 547.56C716.805 547.56 722.085 544.44 723.765 538.8H737.325C734.805 551.76 724.005 559.56 708.525 559.56ZM708.165 508.92C699.525 508.92 694.245 513.6 692.805 522.48H722.565C722.565 514.32 716.925 508.92 708.165 508.92ZM786.002 498.48V512.04H780.602C770.042 512.04 763.442 517.68 763.442 529.2V558H748.802V498.84H762.602L763.442 507.48C765.962 501.6 771.602 497.64 779.522 497.64C781.562 497.64 783.602 497.88 786.002 498.48ZM791.028 527.04C791.028 509.76 802.308 496.8 819.228 496.8C828.108 496.8 835.068 500.52 838.548 506.88L839.388 498.72H852.948V555C852.948 574.8 841.068 587.16 821.868 587.16C804.828 587.16 793.188 577.44 791.388 561.6H806.028C806.988 569.28 812.868 573.84 821.868 573.84C831.948 573.84 838.428 567.48 838.428 557.64V547.8C834.708 553.32 827.388 556.8 818.868 556.8C802.068 556.8 791.028 544.2 791.028 527.04ZM805.788 526.68C805.788 536.64 812.148 544.08 821.748 544.08C831.828 544.08 838.068 537 838.068 526.68C838.068 516.6 831.948 509.64 821.748 509.64C812.028 509.64 805.788 516.96 805.788 526.68ZM862.939 585.48V573.24H871.699C877.459 573.24 881.059 571.92 883.579 564.96L885.259 560.52L861.379 498.72H876.859L892.099 541.92L908.179 498.72H923.299L894.259 571.2C889.819 582.24 883.579 586.8 873.859 586.8C869.779 586.8 866.179 586.32 862.939 585.48Z" fill="#fafafa"/>
</svg>
