<svg width="1024" height="1024" viewBox="0 0 1024 1024" fill="none" xmlns="http://www.w3.org/2000/svg">
<rect width="1024" height="1024" fill="#1f1f1f"/>
<path d="M172.6 558H157.72V470.28H172.6L200.92 540.12L229.24 470.28H244.36V558H229.48V531C229.48 513.36 229.48 508.2 230.32 501.96L208 558H193.84L171.64 502.08C172.48 507.36 172.6 515.64 172.6 526.56V558ZM258.135 528.24C258.135 509.76 271.455 497.04 289.815 497.04C308.175 497.04 321.495 509.76 321.495 528.24C321.495 546.72 308.175 559.44 289.815 559.44C271.455 559.44 258.135 546.72 258.135 528.24ZM272.775 528.24C272.775 539.04 279.735 546.36 289.815 546.36C299.895 546.36 306.855 539.04 306.855 528.24C306.855 517.44 299.895 510.12 289.815 510.12C279.735 510.12 272.775 517.44 272.775 528.24ZM371.893 498.72H386.533V558H372.973L371.893 550.08C368.293 555.72 360.613 559.56 352.693 559.56C339.013 559.56 330.973 550.32 330.973 535.8V498.72H345.613V530.64C345.613 541.92 350.053 546.48 358.213 546.48C367.453 546.48 371.893 541.08 371.893 529.8V498.72ZM416.294 558H401.654V498.72H415.214L416.414 506.4C420.134 500.4 427.334 496.92 435.374 496.92C450.254 496.92 457.934 506.16 457.934 521.52V558H443.294V525C443.294 515.04 438.374 510.24 430.814 510.24C421.814 510.24 416.294 516.48 416.294 526.08V558ZM492.478 558H477.838V510.96H466.438V498.72H477.838V480.24H492.478V498.72H503.998V510.96H492.478V558ZM627.643 514.08C627.643 540.72 610.123 559.44 584.923 559.44C559.843 559.44 542.563 540.84 542.563 514.08C542.563 487.44 559.963 468.72 585.043 468.72C610.123 468.72 627.643 487.32 627.643 514.08ZM611.443 514.08C611.443 495.36 601.123 483.48 585.043 483.48C568.963 483.48 558.643 495.36 558.643 514.08C558.643 532.8 568.963 544.68 585.043 544.68C601.123 544.68 611.443 532.56 611.443 514.08ZM654.539 558H640.019V468.72H654.539V558ZM677.216 486.84C672.176 486.84 668.216 482.88 668.216 477.96C668.216 473.04 672.176 469.2 677.216 469.2C682.016 469.2 685.976 473.04 685.976 477.96C685.976 482.88 682.016 486.84 677.216 486.84ZM669.896 558V498.72H684.536V558H669.896ZM716.462 558L692.942 498.72H708.542L718.862 525.96C721.382 533.04 723.422 539.16 724.142 542.4C724.982 538.68 727.142 532.44 729.662 525.96L740.462 498.72H755.582L730.862 558H716.462ZM787.588 559.56C769.948 559.56 757.588 546.72 757.588 528.36C757.588 509.76 769.708 496.92 787.108 496.92C804.868 496.92 816.148 508.8 816.148 527.28V531.72L771.508 531.84C772.588 542.28 778.108 547.56 787.828 547.56C795.868 547.56 801.148 544.44 802.828 538.8H816.388C813.868 551.76 803.068 559.56 787.588 559.56ZM787.228 508.92C778.588 508.92 773.308 513.6 771.868 522.48H801.628C801.628 514.32 795.988 508.92 787.228 508.92ZM823.305 540H837.225C837.345 545.16 841.185 548.4 847.905 548.4C854.745 548.4 858.465 545.64 858.465 541.32C858.465 538.32 856.905 536.16 851.625 534.96L840.945 532.44C830.265 530.04 825.105 525 825.105 515.52C825.105 503.88 834.945 496.92 848.625 496.92C861.945 496.92 870.945 504.6 871.065 516.12H857.145C857.025 511.08 853.665 507.84 848.025 507.84C842.265 507.84 838.905 510.48 838.905 514.92C838.905 518.28 841.545 520.44 846.585 521.64L857.265 524.16C867.225 526.44 872.265 531 872.265 540.12C872.265 552.12 862.065 559.56 847.425 559.56C832.665 559.56 823.305 551.64 823.305 540Z" fill="#fefefe"/>
</svg>
