<svg width="1024" height="1024" viewBox="0 0 1024 1024" fill="none" xmlns="http://www.w3.org/2000/svg">
<rect width="1024" height="1024" fill="#1f1f1f"/>
<path d="M162.8 379.44C137.24 379.44 120.68 361.68 120.68 334.2C120.68 306.96 137.84 288.84 163.52 288.84C184.28 288.84 199.76 300.96 202.76 319.8H186.56C183.56 309.6 174.8 303.6 163.16 303.6C146.96 303.6 136.76 315.36 136.76 334.08C136.76 352.68 147.08 364.68 163.16 364.68C175.04 364.68 184.16 358.44 187.04 348.72H203C199.64 367.2 183.56 379.44 162.8 379.44ZM254.815 318.72H269.455V378H255.895L254.815 370.08C251.215 375.72 243.535 379.56 235.615 379.56C221.935 379.56 213.895 370.32 213.895 355.8V318.72H228.535V350.64C228.535 361.92 232.975 366.48 241.135 366.48C250.375 366.48 254.815 361.08 254.815 349.8V318.72ZM278.844 360H292.764C292.884 365.16 296.724 368.4 303.444 368.4C310.284 368.4 314.004 365.64 314.004 361.32C314.004 358.32 312.444 356.16 307.164 354.96L296.484 352.44C285.804 350.04 280.644 345 280.644 335.52C280.644 323.88 290.484 316.92 304.164 316.92C317.484 316.92 326.484 324.6 326.604 336.12H312.684C312.564 331.08 309.204 327.84 303.564 327.84C297.804 327.84 294.444 330.48 294.444 334.92C294.444 338.28 297.084 340.44 302.124 341.64L312.804 344.16C322.764 346.44 327.804 351 327.804 360.12C327.804 372.12 317.604 379.56 302.964 379.56C288.204 379.56 278.844 371.64 278.844 360ZM359.111 378H344.471V330.96H333.071V318.72H344.471V300.24H359.111V318.72H370.631V330.96H359.111V378ZM375.666 348.24C375.666 329.76 388.986 317.04 407.346 317.04C425.706 317.04 439.026 329.76 439.026 348.24C439.026 366.72 425.706 379.44 407.346 379.44C388.986 379.44 375.666 366.72 375.666 348.24ZM390.306 348.24C390.306 359.04 397.266 366.36 407.346 366.36C417.426 366.36 424.386 359.04 424.386 348.24C424.386 337.44 417.426 330.12 407.346 330.12C397.266 330.12 390.306 337.44 390.306 348.24ZM465.27 378H450.63V318.72H464.07L465.27 325.68C468.27 320.76 474.27 316.92 482.79 316.92C491.79 316.92 498.03 321.36 501.15 328.2C504.15 321.36 511.11 316.92 520.11 316.92C534.51 316.92 542.43 325.56 542.43 339.24V378H527.91V343.08C527.91 334.56 523.35 330.12 516.39 330.12C509.31 330.12 503.91 334.68 503.91 344.4V378H489.27V342.96C489.27 334.68 484.83 330.24 477.87 330.24C470.91 330.24 465.27 334.8 465.27 344.4V378ZM205.76 514.08C205.76 540.72 188.24 559.44 163.04 559.44C137.96 559.44 120.68 540.84 120.68 514.08C120.68 487.44 138.08 468.72 163.16 468.72C188.24 468.72 205.76 487.32 205.76 514.08ZM189.56 514.08C189.56 495.36 179.24 483.48 163.16 483.48C147.08 483.48 136.76 495.36 136.76 514.08C136.76 532.8 147.08 544.68 163.16 544.68C179.24 544.68 189.56 532.56 189.56 514.08ZM212.016 498.72H220.536V491.52C220.536 475.44 228.936 468.72 241.776 468.72C244.056 468.72 246.816 468.84 249.336 469.32V481.8H244.176C236.736 481.8 235.056 485.64 235.056 491.52V498.72H259.296V491.52C259.296 475.44 267.696 468.72 279.696 468.72C282.096 468.72 284.736 468.84 287.256 469.32V481.8H282.216C275.616 481.8 273.816 485.64 273.816 491.52V498.72H312.696V558H298.056V510.96H273.816V558H259.296V510.96H235.056V558H220.536V510.96H212.016V498.72ZM305.376 486.24C300.456 486.24 296.736 482.4 296.736 477.48C296.736 472.56 300.456 468.72 305.376 468.72C310.296 468.72 314.136 472.56 314.136 477.48C314.136 482.4 310.296 486.24 305.376 486.24ZM324.338 528.24C324.338 509.88 336.458 496.92 353.978 496.92C370.178 496.92 381.218 505.92 382.778 520.2H368.138C366.458 513.48 361.538 510 354.578 510C345.218 510 338.978 517.08 338.978 528.24C338.978 539.4 344.738 546.36 354.098 546.36C361.418 546.36 366.578 542.76 368.138 536.28H382.898C381.098 550.08 369.578 559.56 354.098 559.56C336.098 559.56 324.338 547.08 324.338 528.24ZM420.314 559.56C402.674 559.56 390.314 546.72 390.314 528.36C390.314 509.76 402.434 496.92 419.834 496.92C437.594 496.92 448.874 508.8 448.874 527.28V531.72L404.234 531.84C405.314 542.28 410.834 547.56 420.554 547.56C428.594 547.56 433.874 544.44 435.554 538.8H449.114C446.594 551.76 435.794 559.56 420.314 559.56ZM419.954 508.92C411.314 508.92 406.034 513.6 404.594 522.48H434.354C434.354 514.32 428.714 508.92 419.954 508.92ZM510.455 470.28V516.36L545.975 470.28H564.095L535.055 507.72L564.455 558H546.695L524.975 520.68L510.455 539.28V558H495.095V470.28H510.455ZM582.421 558L563.221 498.72H578.461L586.261 524.16C587.581 528.84 588.781 534 589.861 539.52C590.941 533.76 592.021 530.04 593.941 524.16L602.101 498.72H616.981L624.901 524.16C625.621 526.56 628.021 535.44 628.741 539.4C629.701 534.96 631.621 527.88 632.701 524.16L640.621 498.72H656.101L635.581 558H621.901L613.741 532.32C611.341 524.52 610.021 518.88 609.541 515.88C608.941 518.64 607.861 522.84 604.861 532.56L596.701 558H582.421ZM679.677 559.56C667.077 559.56 659.397 552.24 659.397 541.08C659.397 530.16 667.317 523.32 681.357 522.24L699.117 520.92V519.6C699.117 511.56 694.317 508.32 686.877 508.32C678.237 508.32 673.437 511.92 673.437 518.16H660.957C660.957 505.32 671.517 496.92 687.597 496.92C703.557 496.92 713.397 505.56 713.397 522V558H700.557L699.477 549.24C696.957 555.36 688.917 559.56 679.677 559.56ZM684.477 548.52C693.477 548.52 699.237 543.12 699.237 534V530.88L686.877 531.84C677.757 532.68 674.277 535.68 674.277 540.48C674.277 545.88 677.877 548.52 684.477 548.52ZM764.979 498.48V512.04H759.579C749.019 512.04 742.419 517.68 742.419 529.2V558H727.779V498.84H741.579L742.419 507.48C744.939 501.6 750.579 497.64 758.499 497.64C760.539 497.64 762.579 497.88 764.979 498.48ZM790.184 559.56C777.584 559.56 769.904 552.24 769.904 541.08C769.904 530.16 777.824 523.32 791.864 522.24L809.624 520.92V519.6C809.624 511.56 804.824 508.32 797.384 508.32C788.744 508.32 783.944 511.92 783.944 518.16H771.464C771.464 505.32 782.024 496.92 798.104 496.92C814.064 496.92 823.904 505.56 823.904 522V558H811.064L809.984 549.24C807.464 555.36 799.424 559.56 790.184 559.56ZM794.984 548.52C803.984 548.52 809.744 543.12 809.744 534V530.88L797.384 531.84C788.264 532.68 784.784 535.68 784.784 540.48C784.784 545.88 788.384 548.52 794.984 548.52ZM162.8 739.44C137.24 739.44 120.68 721.68 120.68 694.2C120.68 666.96 137.84 648.84 163.52 648.84C184.28 648.84 199.76 660.96 202.76 679.8H186.56C183.56 669.6 174.8 663.6 163.16 663.6C146.96 663.6 136.76 675.36 136.76 694.08C136.76 712.68 147.08 724.68 163.16 724.68C175.04 724.68 184.16 718.44 187.04 708.72H203C199.64 727.2 183.56 739.44 162.8 739.44ZM211.135 708.24C211.135 689.76 224.455 677.04 242.815 677.04C261.175 677.04 274.495 689.76 274.495 708.24C274.495 726.72 261.175 739.44 242.815 739.44C224.455 739.44 211.135 726.72 211.135 708.24ZM225.775 708.24C225.775 719.04 232.735 726.36 242.815 726.36C252.895 726.36 259.855 719.04 259.855 708.24C259.855 697.44 252.895 690.12 242.815 690.12C232.735 690.12 225.775 697.44 225.775 708.24ZM300.739 738H286.099V678.72H299.539L300.739 685.68C303.739 680.76 309.739 676.92 318.259 676.92C327.259 676.92 333.499 681.36 336.619 688.2C339.619 681.36 346.579 676.92 355.579 676.92C369.979 676.92 377.899 685.56 377.899 699.24V738H363.379V703.08C363.379 694.56 358.819 690.12 351.859 690.12C344.779 690.12 339.379 694.68 339.379 704.4V738H324.739V702.96C324.739 694.68 320.299 690.24 313.339 690.24C306.379 690.24 300.739 694.8 300.739 704.4V738ZM406.911 738H392.271V678.72H405.711L406.911 685.68C409.911 680.76 415.911 676.92 424.431 676.92C433.431 676.92 439.671 681.36 442.791 688.2C445.791 681.36 452.751 676.92 461.751 676.92C476.151 676.92 484.071 685.56 484.071 699.24V738H469.551V703.08C469.551 694.56 464.991 690.12 458.031 690.12C450.951 690.12 445.551 694.68 445.551 704.4V738H430.911V702.96C430.911 694.68 426.471 690.24 419.511 690.24C412.551 690.24 406.911 694.8 406.911 704.4V738ZM516.083 739.56C503.483 739.56 495.803 732.24 495.803 721.08C495.803 710.16 503.723 703.32 517.763 702.24L535.523 700.92V699.6C535.523 691.56 530.723 688.32 523.283 688.32C514.643 688.32 509.843 691.92 509.843 698.16H497.363C497.363 685.32 507.923 676.92 524.003 676.92C539.963 676.92 549.803 685.56 549.803 702V738H536.963L535.883 729.24C533.363 735.36 525.323 739.56 516.083 739.56ZM520.883 728.52C529.883 728.52 535.643 723.12 535.643 714V710.88L523.283 711.84C514.163 712.68 510.683 715.68 510.683 720.48C510.683 725.88 514.283 728.52 520.883 728.52ZM578.825 738H564.185V678.72H577.745L578.945 686.4C582.665 680.4 589.865 676.92 597.905 676.92C612.785 676.92 620.465 686.16 620.465 701.52V738H605.825V705C605.825 695.04 600.905 690.24 593.345 690.24C584.345 690.24 578.825 696.48 578.825 706.08V738ZM659.209 739.56C642.049 739.56 631.369 726.96 631.369 708.6C631.369 690.12 642.169 676.92 660.049 676.92C668.329 676.92 675.649 680.4 679.369 686.28V648.72H693.889V738H680.449L679.489 728.76C675.889 735.6 668.209 739.56 659.209 739.56ZM662.449 726.12C672.649 726.12 679.249 718.8 679.249 708.12C679.249 697.44 672.649 690 662.449 690C652.249 690 646.009 697.56 646.009 708.12C646.009 718.68 652.249 726.12 662.449 726.12Z" fill="#fafafa"/>
</svg>
